<?xml version="1.0" encoding="UTF-8" standalone="no"?>
<svg width="170px" height="31px" viewBox="0 0 170 31" version="1.1" xmlns="http://www.w3.org/2000/svg" xmlns:xlink="http://www.w3.org/1999/xlink">
    <!-- Generator: Sketch 39.1 (31720) - http://www.bohemiancoding.com/sketch -->
    <title>Banner_SALIDO_Large</title>
    <desc>Created with Sketch.</desc>
    <defs></defs>
    <g id="New-Site-Design" stroke="none" stroke-width="1" fill="none" fill-rule="evenodd">
        <g id="Desktop-v2-Screen-2-Copy-9" transform="translate(-88.000000, -100.000000)" fill="#000000">
            <g id="Banner_SALIDO_Large" transform="translate(88.000000, 100.000000)">
                <path d="M14.4526436,7.26183406 C13.2645499,5.51681176 11.5338867,4.64436813 9.25943953,4.64436813 C8.55164334,4.64436813 7.85686828,4.7391608 7.17457461,4.92888117 C6.49221348,5.11853402 5.87920841,5.40959612 5.33616661,5.80139231 C4.79238268,6.19372863 4.35647846,6.69935705 4.02831902,7.31868265 C3.69961984,7.93875093 3.53554013,8.66535969 3.53554013,9.49999428 C3.53554013,10.7138671 3.87672069,11.6563249 4.55901436,12.3260176 C5.24130803,12.9964529 6.08774888,13.5465069 7.09880918,13.9762472 C8.10919482,14.4065276 9.21504625,14.7918422 10.4156213,15.1332714 C11.6155217,15.4745655 12.7213732,15.9298269 13.7325009,16.4987854 C14.7428866,17.0678115 15.5898672,17.820549 16.2722283,18.7558502 C16.9544545,19.6918265 17.2956351,20.9691645 17.2956351,22.5873239 C17.2956351,23.8011967 17.0362245,24.8953633 16.5185503,25.8685411 C16.0002689,26.842529 15.3179752,27.658124 14.4716693,28.3153262 C13.6246212,28.9733385 12.6769799,29.4788994 11.6286778,29.8327515 C10.5796336,30.1866037 9.52485467,30.3638335 8.46339652,30.3638335 C6.82037292,30.3638335 5.26033372,30.0538669 3.78199704,29.4344738 C2.30352543,28.8149456 1.04614314,27.7972748 0.0102549824,26.3807861 L2.51206589,24.5977522 C3.09133747,25.5839605 3.89743306,26.3747771 4.93035267,26.9686491 C5.96333975,27.5631963 7.18469466,27.8601323 8.59542942,27.8601323 C9.27549667,27.8601323 9.9560362,27.7528492 10.6359685,27.5377427 C11.3159008,27.3231089 11.9270843,27.0065257 12.4684394,26.5894109 C13.0097945,26.1720937 13.4571007,25.6598487 13.8100205,25.052946 C14.1624006,24.4459759 14.3389617,23.7507621 14.3389617,22.9665621 C14.3389617,22.0312609 14.1429026,21.2536775 13.7513917,20.6337442 C13.359341,20.0142161 12.8416668,19.4955571 12.1972221,19.0784423 C11.5528449,18.661125 10.8195462,18.3136869 9.99860787,18.0351828 C9.1771298,17.7572189 8.33075642,17.4791199 7.45888051,17.2005482 C6.58707207,16.9226518 5.74002401,16.6066087 4.91915315,16.2522165 C4.09767508,15.8983643 3.36498358,15.4497196 2.72060636,14.9055394 C2.07616167,14.362102 1.55788026,13.6792437 1.16636932,12.8571671 C0.77431864,12.0356306 0.578799304,11.0049292 0.578799304,9.76546776 C0.578799304,8.47570683 0.825256217,7.35075282 1.31796764,6.38939042 C1.810814,5.42850064 2.46767261,4.63194516 3.28915068,3.99945391 C4.11002154,3.36770533 5.03877212,2.89941335 6.07533495,2.59592828 C7.11122311,2.29251072 8.17268126,2.14066691 9.25943953,2.14066691 C10.7757601,2.14066691 12.1528288,2.38142948 13.3913204,2.86146928 C14.6291372,3.34218423 15.7793819,4.18917428 16.8407726,5.40304706 L14.4526436,7.26183406" id="Fill-1"></path>
                <path d="M32.4152573,30.3638335 L29.2311527,30.3638335 L40.9063153,3.5063835 L43.5598595,3.5063835 L55.2350895,30.3638335 L52.0509175,30.3638335 L49.0941766,23.3079912 L35.3720656,23.3079912 L32.4152573,30.3638335 L32.4152573,30.3638335 Z M36.3954049,20.8043575 L48.0327859,20.8043575 L42.2331211,6.69280798 L36.3954049,20.8043575 L36.3954049,20.8043575 Z" id="Fill-2"></path>
                <polyline id="Fill-3" points="69.4827009 27.8601323 81.9918229 27.8601323 81.9918229 30.3638335 66.7533238 30.3638335 66.7533238 3.5063835 69.4827009 3.5063835 69.4827009 27.8601323"></polyline>
                <polygon id="Fill-4" points="94.2787761 3.5063835 97.0080857 3.5063835 97.0080857 30.3638335 94.2787761 30.3638335"></polygon>
                <path d="M109.372086,3.5063835 L118.28009,3.5063835 C119.948144,3.5063835 121.621933,3.7848876 123.302738,4.34088306 C124.983206,4.89748616 126.499324,5.7386023 127.851632,6.86355631 C129.203266,7.98911797 130.296636,9.39264361 131.13046,11.0743358 C131.96442,12.756298 132.381501,14.7100127 132.381501,16.9350072 C132.381501,19.1861981 131.96442,21.1457867 131.13046,22.8147858 C130.296636,24.484055 129.203266,25.8815717 127.851632,27.0067282 C126.499324,28.1322899 124.983206,28.9733385 123.302738,29.529199 C121.621933,30.0858696 119.948144,30.3638335 118.28009,30.3638335 L109.372086,30.3638335 L109.372086,3.5063835 L109.372086,3.5063835 Z M112.101463,27.8601323 L117.408282,27.8601323 C119.455298,27.8601323 121.230354,27.5507733 122.734126,26.9308401 C124.237425,26.3112444 125.488263,25.4892354 126.486977,24.4650154 C127.485016,23.440728 128.224185,22.2779649 128.704415,20.9751734 C129.184308,19.6727869 129.424827,18.3261099 129.424827,16.9350072 C129.424827,15.5445122 129.184308,14.1979027 128.704415,12.8951112 C128.224185,11.5929273 127.485016,10.4294215 126.486977,9.40513409 C125.488263,8.38091417 124.237425,7.55937771 122.734126,6.93944446 C121.230354,6.31998383 119.455298,6.0100172 117.408282,6.0100172 L112.101463,6.0100172 L112.101463,27.8601323 L112.101463,27.8601323 Z" id="Fill-5"></path>
                <polygon id="Fill-6" points="154.852663 0.0474638502 157.502092 0.0474638502 157.502092 8.00923779 154.852663 8.00923779"></polygon>
                <path d="M168.725023,11.1789183 C168.037805,9.50985163 167.08733,8.0674367 165.873194,6.85228112 C164.658788,5.63712553 163.231389,4.68602559 161.575547,3.99850868 C161.11468,3.80730296 160.571435,3.64546676 160.166633,3.50739624 L160.166633,6.09900348 C160.369034,6.16726231 160.50525,6.24017974 160.674053,6.31829592 C161.998767,6.93228775 163.117235,7.75449937 164.037215,8.78547091 C164.95706,9.81650997 165.660066,11.0132336 166.15109,12.3757095 C166.641575,13.7382528 166.886143,15.1685823 166.886143,16.6655503 C166.886143,18.163261 166.640159,19.5931179 166.149674,20.9555262 C165.658649,22.317867 164.953551,23.5146582 164.033639,24.5456972 C163.113726,25.5768713 161.991278,26.3996231 160.666564,27.0129397 C159.341917,27.6267965 157.845229,27.9335224 156.17731,27.9335224 C154.508987,27.9335224 153.012974,27.6267965 151.688259,27.0129397 C150.363612,26.3996231 149.241299,25.5768713 148.321387,24.5456972 C147.401474,23.5146582 146.695972,22.317867 146.205554,20.9555262 C145.71453,19.5931179 145.469624,18.163261 145.469624,16.6655503 C145.469624,15.1685823 145.71453,13.7382528 146.205554,12.3757095 C146.695972,11.0132336 147.401474,9.81650997 148.321387,8.78547091 C149.241232,7.75449937 150.392488,6.93228775 151.717203,6.31829592 C151.894911,6.23599374 152.138062,6.16118585 152.340463,6.09009135 L152.340463,3.4980115 C151.935661,3.6372973 151.298705,3.80392715 150.829674,3.99850868 C149.173832,4.68602559 147.717355,5.63712553 146.503016,6.85228112 C145.288813,8.0674367 144.327138,9.50985163 143.640527,11.1789183 C142.953511,12.8486601 142.604909,14.6771998 142.604909,16.6655503 C142.604909,18.6540358 142.945414,20.4831832 143.632431,22.1522499 C144.319042,23.8219917 145.268708,25.2637314 146.482911,26.4789545 C147.697249,27.6942452 149.131598,28.6456827 150.787507,29.3327945 C152.443147,30.0197713 154.239523,30.3638335 156.177648,30.3638335 C158.1153,30.3638335 159.91235,30.0197713 161.568058,29.3327945 C163.223968,28.6456827 164.658923,27.6942452 165.873261,26.4789545 C167.087465,25.2637314 168.037805,23.8219917 168.725023,22.1522499 C169.411433,20.4831832 169.755244,18.6540358 169.755244,16.6655503 C169.755244,14.6771998 169.411433,12.8486601 168.725023,11.1789183" id="Fill-7"></path>
            </g>
        </g>
    </g>
</svg>